<svg xmlns="http://www.w3.org/2000/svg" viewBox="0 0 754.1 827.8" style="enable-background:new 0 0 754.1 827.8" xml:space="preserve"><linearGradient id="a" gradientUnits="userSpaceOnUse" x1="807.679" y1="-1673.094" x2="437.65" y2="-826.513" gradientTransform="translate(-258.083 1628.467)"><stop offset="0" style="stop-color:#fff"/><stop offset="1" style="stop-color:#eb5d9d"/></linearGradient><path d="M238.5 827.5c33.5-27.1 53.3-63 46.8-97.8-18.5-98.5-145.7-103.6-210.5-173.2-12.8-13.7-39.1-66 .2-120.5 31.6-43.9 105.8-68.3 178.5-73.9 27-2.1 54.5-2 80.7-6.9 26.2-4.8 51.8-15.6 61.5-32.4 13.1-22.7-5.7-47.3-17.4-70.3-10-19.7-14.8-41.1-8.7-61.5 6.1-20.5 24.1-39.9 51.6-49.9 41.4-15.1 92.3-6.6 138.4.4 46.1 7 104.4 11.4 152.3-3.1 51-15.5 79-77.4-60.4-137.9" style="fill:none;stroke:url(#a);stroke-miterlimit:10"/><linearGradient id="b" gradientUnits="userSpaceOnUse" x1="776.681" y1="-1642.976" x2="418.774" y2="-824.129" gradientTransform="translate(-258.083 1628.467)"><stop offset="0" style="stop-color:#fff"/><stop offset="1" style="stop-color:#eb5d9d"/></linearGradient><path d="M211.6 826.3c33.5-26 53.3-60.5 46.8-93.9-18.5-94.5-145.7-99.4-210.5-166.2-12.8-13.2-39.1-63.4.2-115.7 31.6-42.1 105.8-65.6 178.5-70.9 27-2 54.5-2 80.7-6.6s51.8-14.9 61.5-31.1c13.1-21.8-5.7-45.4-17.4-67.5-10-19-14.8-39.5-8.7-59 6.1-19.6 24.1-38.3 51.6-47.9 41.4-14.5 92.3-6.3 138.4.4s104.4 11 152.3-3c51-14.8 79-74.3-60.4-132.3" style="fill:none;stroke:url(#b);stroke-miterlimit:10"/></svg>